<svg width="27" height="26" viewBox="0 0 27 26" fill="none" xmlns="http://www.w3.org/2000/svg">
<path d="M17.9688 12.1875C17.9688 13.0713 17.7067 13.9353 17.2156 14.6702C16.7246 15.4051 16.0267 15.9779 15.2101 16.3161C14.3936 16.6543 13.495 16.7428 12.6282 16.5704C11.7613 16.398 10.9651 15.9723 10.3401 15.3474C9.71515 14.7224 9.28955 13.9262 9.11712 13.0593C8.94469 12.1925 9.03319 11.2939 9.37142 10.4774C9.70965 9.66083 10.2824 8.9629 11.0173 8.47187C11.7522 7.98084 12.6162 7.71875 13.5 7.71875C14.6848 7.72009 15.8206 8.19134 16.6584 9.0291C17.4962 9.86686 17.9674 11.0027 17.9688 12.1875ZM24.0625 13C24.0625 15.0891 23.443 17.1312 22.2824 18.8682C21.1218 20.6052 19.4721 21.959 17.5421 22.7585C15.6121 23.5579 13.4883 23.7671 11.4394 23.3595C9.39044 22.952 7.50838 21.946 6.03119 20.4688C4.554 18.9916 3.54802 17.1096 3.14046 15.0606C2.7329 13.0117 2.94208 10.8879 3.74153 8.95791C4.54098 7.02786 5.8948 5.37822 7.63179 4.2176C9.36879 3.05698 11.4109 2.4375 13.5 2.4375C16.3004 2.44046 18.9853 3.55424 20.9656 5.53445C22.9458 7.51466 24.0595 10.1996 24.0625 13ZM22.4375 13C22.4362 11.797 22.1923 10.6067 21.7204 9.50011C21.2485 8.39356 20.5583 7.39354 19.6911 6.55985C18.8238 5.72617 17.7973 5.07595 16.673 4.64807C15.5487 4.22019 14.3497 4.02345 13.1476 4.06961C8.36399 4.25445 4.5493 8.23875 4.5625 13.0254C4.56709 15.2044 5.37076 17.3061 6.82125 18.9323C7.41196 18.0755 8.16233 17.3406 9.03125 16.768C9.10534 16.719 9.19341 16.6957 9.282 16.7016C9.37059 16.7075 9.45482 16.7422 9.5218 16.8005C10.626 17.7555 12.0371 18.2811 13.497 18.2811C14.9569 18.2811 16.3679 17.7555 17.4721 16.8005C17.5391 16.7422 17.6233 16.7075 17.7119 16.7016C17.8005 16.6957 17.8886 16.719 17.9627 16.768C18.8327 17.3403 19.5841 18.0752 20.1757 18.9323C21.6334 17.3002 22.4386 15.1883 22.4375 13Z" fill="#1DBF73"/>
</svg>
