<svg width="27" height="26" viewBox="0 0 27 26" fill="none" xmlns="http://www.w3.org/2000/svg">
<path d="M13.5 2.4375C11.4109 2.4375 9.36879 3.05698 7.63179 4.2176C5.8948 5.37822 4.54098 7.02786 3.74153 8.95791C2.94208 10.8879 2.7329 13.0117 3.14046 15.0606C3.54802 17.1096 4.554 18.9916 6.03119 20.4688C7.50838 21.946 9.39044 22.952 11.4394 23.3595C13.4883 23.7671 15.6121 23.5579 17.5421 22.7585C19.4721 21.959 21.1218 20.6052 22.2824 18.8682C23.443 17.1312 24.0625 15.0891 24.0625 13C24.0595 10.1996 22.9458 7.51466 20.9656 5.53445C18.9853 3.55424 16.3004 2.44046 13.5 2.4375ZM22.4375 13C22.4384 14.1466 22.2177 15.2826 21.7875 16.3455L17.2477 13.5535C17.0546 13.4344 16.8387 13.3572 16.6139 13.327L14.2963 13.0142C13.9769 12.9726 13.6523 13.0261 13.3633 13.1681C13.0742 13.3101 12.8335 13.5343 12.6713 13.8125H11.7856L11.3997 13.0142C11.293 12.7919 11.1368 12.597 10.9432 12.4444C10.7496 12.2918 10.5236 12.1855 10.2825 12.1337L9.47 11.958L10.2642 10.5625H11.9613C12.236 10.562 12.506 10.4921 12.7464 10.3594L13.9906 9.67281C14.0999 9.61188 14.202 9.53899 14.2952 9.45547L17.0283 6.98344C17.3023 6.73787 17.4844 6.40624 17.5446 6.04324C17.6048 5.68025 17.5395 5.30758 17.3594 4.98672L17.3228 4.9207C18.8521 5.64586 20.1445 6.78985 21.0498 8.21991C21.9551 9.64998 22.4363 11.3075 22.4375 13ZM4.5625 13C4.56115 11.6716 4.85752 10.3597 5.42985 9.16094L6.58157 12.2352C6.67755 12.4898 6.83589 12.7161 7.04209 12.8936C7.24828 13.071 7.49572 13.1939 7.76172 13.2509L9.93821 13.7191L10.3252 14.5234C10.4595 14.797 10.6676 15.0276 10.926 15.1891C11.1844 15.3506 11.4829 15.4367 11.7877 15.4375H11.938L11.2037 17.0859C11.0743 17.3761 11.0329 17.6979 11.0845 18.0115C11.1361 18.325 11.2785 18.6166 11.4941 18.85L11.5084 18.8642L13.5 20.9158L13.303 21.9314C10.9689 21.8771 8.74846 20.9127 7.1155 19.2441C5.48254 17.5755 4.56638 15.3347 4.5625 13Z" fill="#1DBF73"/>
</svg>
