<svg width="27" height="26" viewBox="0 0 27 26" fill="none" xmlns="http://www.w3.org/2000/svg">
<g clip-path="url(#clip0_7_13513)">
<path d="M10.25 21.9375C10.25 22.2589 10.1547 22.5731 9.97614 22.8403C9.79758 23.1075 9.54379 23.3158 9.24686 23.4388C8.94993 23.5618 8.6232 23.594 8.30798 23.5313C7.99276 23.4686 7.70321 23.3138 7.47595 23.0865C7.24869 22.8593 7.09392 22.5697 7.03122 22.2545C6.96852 21.9393 7.0007 21.6126 7.1237 21.3156C7.24669 21.0187 7.45497 20.7649 7.7222 20.5864C7.98943 20.4078 8.30361 20.3125 8.625 20.3125C9.05598 20.3125 9.4693 20.4837 9.77405 20.7885C10.0788 21.0932 10.25 21.5065 10.25 21.9375ZM19.1875 20.3125C18.8661 20.3125 18.5519 20.4078 18.2847 20.5864C18.0175 20.7649 17.8092 21.0187 17.6862 21.3156C17.5632 21.6126 17.531 21.9393 17.5937 22.2545C17.6564 22.5697 17.8112 22.8593 18.0385 23.0865C18.2657 23.3138 18.5553 23.4686 18.8705 23.5313C19.1857 23.594 19.5124 23.5618 19.8094 23.4388C20.1063 23.3158 20.3601 23.1075 20.5386 22.8403C20.7172 22.5731 20.8125 22.2589 20.8125 21.9375C20.8125 21.5065 20.6413 21.0932 20.3365 20.7885C20.0318 20.4837 19.6185 20.3125 19.1875 20.3125ZM23.9041 6.83008C23.8285 6.72768 23.73 6.64447 23.6163 6.58713C23.5027 6.5298 23.3773 6.49996 23.25 6.5H5.4075L4.58383 3.61562C4.48553 3.27676 4.28012 2.97884 3.99835 2.76646C3.71659 2.55408 3.37362 2.43867 3.02078 2.4375H1.3125C1.09701 2.4375 0.890349 2.5231 0.737976 2.67548C0.585602 2.82785 0.5 3.03451 0.5 3.25C0.5 3.46549 0.585602 3.67215 0.737976 3.82452C0.890349 3.9769 1.09701 4.0625 1.3125 4.0625H3.02078L6.69531 16.9193C6.84236 17.4276 7.15013 17.8746 7.57252 18.1934C7.99491 18.5122 8.50919 18.6855 9.03836 18.6875H18.7995C19.3212 18.6893 19.8296 18.5229 20.2493 18.213C20.669 17.9031 20.9776 17.4662 21.1294 16.967L24.027 7.55117C24.0643 7.42974 24.0726 7.30125 24.0512 7.17601C24.0299 7.05078 23.9795 6.9323 23.9041 6.83008Z" fill="#1DBF73"/>
</g>
<defs>
<clipPath id="clip0_7_13513">
<rect width="26" height="26" fill="white" transform="translate(0.5)"/>
</clipPath>
</defs>
</svg>
