<svg width="19" height="18" viewBox="0 0 19 18" fill="none" xmlns="http://www.w3.org/2000/svg">
<g clip-path="url(#clip0_3_13388)">
<path d="M1.67969 9C1.67969 6.17157 1.67969 4.75736 2.55837 3.87868C3.43705 3 4.85126 3 7.67969 3H10.6797C13.5081 3 14.9224 3 15.801 3.87868C16.6797 4.75736 16.6797 6.17157 16.6797 9V10.5C16.6797 13.3284 16.6797 14.7427 15.801 15.6213C14.9224 16.5 13.5081 16.5 10.6797 16.5H7.67969C4.85126 16.5 3.43705 16.5 2.55837 15.6213C1.67969 14.7427 1.67969 13.3284 1.67969 10.5V9Z" stroke="#8692A6" stroke-width="1.5"/>
<path d="M5.42969 3V1.875" stroke="#8692A6" stroke-width="1.5" stroke-linecap="round"/>
<path d="M12.9297 3V1.875" stroke="#8692A6" stroke-width="1.5" stroke-linecap="round"/>
<path d="M2.05469 6.75H16.3047" stroke="#8692A6" stroke-width="1.5" stroke-linecap="round"/>
<path d="M13.6797 12.75C13.6797 13.1642 13.3439 13.5 12.9297 13.5C12.5155 13.5 12.1797 13.1642 12.1797 12.75C12.1797 12.3358 12.5155 12 12.9297 12C13.3439 12 13.6797 12.3358 13.6797 12.75Z" fill="#8692A6"/>
<path d="M13.6797 9.75C13.6797 10.1642 13.3439 10.5 12.9297 10.5C12.5155 10.5 12.1797 10.1642 12.1797 9.75C12.1797 9.33578 12.5155 9 12.9297 9C13.3439 9 13.6797 9.33578 13.6797 9.75Z" fill="#8692A6"/>
<path d="M9.92969 12.75C9.92969 13.1642 9.59391 13.5 9.17969 13.5C8.76546 13.5 8.42969 13.1642 8.42969 12.75C8.42969 12.3358 8.76546 12 9.17969 12C9.59391 12 9.92969 12.3358 9.92969 12.75Z" fill="#8692A6"/>
<path d="M9.92969 9.75C9.92969 10.1642 9.59391 10.5 9.17969 10.5C8.76546 10.5 8.42969 10.1642 8.42969 9.75C8.42969 9.33578 8.76546 9 9.17969 9C9.59391 9 9.92969 9.33578 9.92969 9.75Z" fill="#8692A6"/>
<path d="M6.17969 12.75C6.17969 13.1642 5.8439 13.5 5.42969 13.5C5.01548 13.5 4.67969 13.1642 4.67969 12.75C4.67969 12.3358 5.01548 12 5.42969 12C5.8439 12 6.17969 12.3358 6.17969 12.75Z" fill="#8692A6"/>
<path d="M6.17969 9.75C6.17969 10.1642 5.8439 10.5 5.42969 10.5C5.01548 10.5 4.67969 10.1642 4.67969 9.75C4.67969 9.33578 5.01548 9 5.42969 9C5.8439 9 6.17969 9.33578 6.17969 9.75Z" fill="#8692A6"/>
</g>
<defs>
<clipPath id="clip0_3_13388">
<rect width="18" height="18" fill="white" transform="translate(0.179688)"/>
</clipPath>
</defs>
</svg>
