<svg width="12" height="12" viewBox="0 0 12 12" fill="none" xmlns="http://www.w3.org/2000/svg">
<path d="M9.77295 8.97703C9.87862 9.0827 9.93799 9.22603 9.93799 9.37547C9.93799 9.52491 9.87862 9.66823 9.77295 9.77391C9.66728 9.87958 9.52395 9.93894 9.37451 9.93894C9.22507 9.93895 9.08175 9.87958 8.97607 9.77391L5.99998 6.79688L3.02295 9.77297C2.91728 9.87864 2.77395 9.93801 2.62451 9.93801C2.47507 9.93801 2.33175 9.87864 2.22607 9.77297C2.1204 9.6673 2.06104 9.52397 2.06104 9.37453C2.06104 9.22509 2.1204 9.08177 2.22607 8.97609L5.2031 6L2.22701 3.02297C2.12134 2.9173 2.06197 2.77397 2.06197 2.62453C2.06197 2.47509 2.12134 2.33177 2.22701 2.22609C2.33268 2.12042 2.47601 2.06106 2.62545 2.06106C2.77489 2.06106 2.91821 2.12042 3.02389 2.22609L5.99998 5.20313L8.97701 2.22563C9.08268 2.11995 9.226 2.06059 9.37545 2.06059C9.52489 2.06059 9.66821 2.11995 9.77389 2.22563C9.87956 2.3313 9.93892 2.47462 9.93892 2.62406C9.93892 2.77351 9.87956 2.91683 9.77389 3.0225L6.79685 6L9.77295 8.97703Z" fill="#1DBF73"/>
</svg>
