<svg width="18" height="18" viewBox="0 0 18 18" fill="none" xmlns="http://www.w3.org/2000/svg">
<path fill-rule="evenodd" clip-rule="evenodd" d="M11.9401 9.5991C11.9794 9.40553 12 9.2052 12 9C12 7.34314 10.6568 6 9 6C8.7948 6 8.59447 6.0206 8.4009 6.05983L11.9401 9.5991ZM6.50007 7.34099C6.1841 7.8162 6 8.38657 6 9C6 10.6568 7.34314 12 9 12C9.61342 12 10.1838 11.8159 10.659 11.4999L9.55357 10.3945C9.38235 10.4626 9.19552 10.5 9 10.5C8.17155 10.5 7.5 9.82845 7.5 9C7.5 8.80447 7.53743 8.61765 7.60545 8.44642L6.50007 7.34099Z" fill="#8692A6"/>
<path fill-rule="evenodd" clip-rule="evenodd" d="M12.3893 13.2304L11.2874 12.1284C10.5582 12.5104 9.78577 12.75 9 12.75C7.85565 12.75 6.73962 12.2418 5.74435 11.5258C4.75501 10.814 3.94806 9.94185 3.43789 9.3225C3.36306 9.2316 3.30718 9.16365 3.26088 9.10388C3.22424 9.05655 3.20089 9.02363 3.18567 9C3.20089 8.97638 3.22424 8.94345 3.26088 8.89613C3.30718 8.83635 3.36306 8.7684 3.43789 8.6775C3.93696 8.07165 4.72001 7.2239 5.67998 6.52097L4.60843 5.44943C3.59732 6.22212 2.79185 7.10254 2.28006 7.72388C2.26238 7.7454 2.24394 7.76745 2.22496 7.79018C1.98989 8.0718 1.6723 8.4522 1.6723 9C1.6723 9.5478 1.98988 9.9282 2.22495 10.2098C2.24387 10.2325 2.26242 10.2547 2.28006 10.2761C2.83497 10.9499 3.73513 11.9281 4.86833 12.7434C5.99562 13.5544 7.41756 14.25 9 14.25C10.2525 14.25 11.4045 13.8143 12.3893 13.2304ZM6.60511 4.26413C7.34296 3.95153 8.14822 3.75 9 3.75C10.5824 3.75 12.0044 4.4456 13.1317 5.25664C14.2648 6.07193 15.1651 7.05019 15.7199 7.72388C15.7376 7.7454 15.7561 7.76745 15.775 7.79018C16.0101 8.0718 16.3277 8.4522 16.3277 9C16.3277 9.5478 16.0101 9.9282 15.775 10.2098C15.7561 10.2326 15.7376 10.2546 15.7199 10.2761C15.355 10.7192 14.8405 11.2942 14.2087 11.8678L13.1467 10.8058C13.7317 10.281 14.2154 9.7434 14.5621 9.3225C14.6369 9.2316 14.6928 9.16365 14.7391 9.10388C14.7757 9.05655 14.7991 9.02363 14.8144 9C14.7991 8.97638 14.7757 8.94345 14.7391 8.89613C14.6928 8.83635 14.6369 8.7684 14.5621 8.6775C14.0519 8.05815 13.245 7.18604 12.2557 6.47425C11.2604 5.7582 10.1443 5.25 9 5.25C8.58675 5.25 8.17717 5.31628 7.7757 5.43468L6.60511 4.26413Z" fill="#8692A6"/>
<path d="M3.75 1.5L15.75 13.5" stroke="#8692A6" stroke-width="2"/>
</svg>
