<?xml version="1.0" encoding="iso-8859-1"?>
<!-- Uploaded to: SVG Repo, www.svgrepo.com, Generator: SVG Repo Mixer Tools -->
<svg version="1.1" id="Layer_1" xmlns="http://www.w3.org/2000/svg" xmlns:xlink="http://www.w3.org/1999/xlink" 
	 viewBox="0 0 512 512" xml:space="preserve">
<rect x="8.017" y="62.53" style="fill:#6DDAE1;" width="299.472" height="331.357"/>
<polygon style="fill:#4FC4D3;" points="8.017,62.53 8.017,393.887 269.04,393.887 34.55,62.53 "/>
<path style="fill:#FFD791;" d="M487.95,282.722h-43.825V179.04c0-8.855-7.179-16.033-16.033-16.033H307.307l0.178,230.881h196.498
	v-95.132C503.983,289.901,496.805,282.722,487.95,282.722z"/>
<rect x="337.236" y="188.66" style="fill:#808080;" width="76.96" height="68.409"/>
<path style="fill:#F8BE73;" d="M487.95,410.99H24.05c-8.855,0-16.033-7.179-16.033-16.033v-26.722h495.967v26.722
	C503.983,403.811,496.805,410.99,487.95,410.99z"/>
<circle style="fill:#666666;" cx="123.457" cy="385.336" r="64.134"/>
<circle style="fill:#CCCCCC;" cx="123.457" cy="385.336" r="29.929"/>
<circle style="fill:#666666;" cx="375.716" cy="385.336" r="64.134"/>
<circle style="fill:#CCCCCC;" cx="375.716" cy="385.336" r="29.929"/>
<polygon style="fill:#FFD791;" points="59.324,172.626 84.977,172.626 84.977,283.791 230.347,283.791 230.347,172.626 256,172.626 
	157.662,112.768 "/>
<polygon style="fill:#F8BE73;" points="59.324,172.626 84.977,172.626 84.977,283.791 115.441,283.791 115.441,138.468 "/>
<rect x="136.284" y="215.382" style="fill:#E5E5E5;" width="42.756" height="68.409"/>
<path d="M487.95,274.706h-35.808V179.04c0-13.261-10.789-24.05-24.05-24.05h-112.59V62.53c0-4.428-3.588-8.017-8.017-8.017H8.017
	C3.588,54.514,0,58.102,0,62.53v169.954c0,4.428,3.588,8.017,8.017,8.017s8.017-3.588,8.017-8.017V70.547h283.435l-0.026,289.67
	H191.089c-10.223-27.435-36.679-47.031-67.632-47.031s-57.409,19.596-67.632,47.031H16.033v-76.426c0-4.428-3.588-8.017-8.017-8.017
	S0,279.363,0,283.791v111.165c0,13.261,10.789,24.05,24.05,24.05h35.622c12.118,22.863,36.156,38.48,63.785,38.48
	s51.667-15.618,63.785-38.48h55.931c4.428,0,8.017-3.588,8.017-8.017s-3.588-8.017-8.017-8.017h-49.755
	c2.2-8.723,2.724-17.8,1.597-26.722h109.143c-1.128,8.922-0.603,17.999,1.597,26.722h-19.826c-4.428,0-8.017,3.588-8.017,8.017
	s3.588,8.017,8.017,8.017h26.002c12.118,22.863,36.156,38.48,63.785,38.48s51.667-15.618,63.785-38.48h48.449
	c13.261,0,24.05-10.789,24.05-24.05v-96.2C512,285.495,501.211,274.706,487.95,274.706z M24.05,402.973
	c-4.421,0-8.017-3.596-8.017-8.017v-18.706h35.866c-1.128,8.922-0.603,17.999,1.597,26.722H24.05z M123.457,441.453
	c-30.942,0-56.117-25.175-56.117-56.117s25.175-56.117,56.117-56.117s56.117,25.175,56.117,56.117S154.4,441.453,123.457,441.453z
	 M428.092,171.023c4.421,0,8.017,3.596,8.017,8.017v103.683c0,4.428,3.588,8.017,8.017,8.017h43.825
	c4.421,0,8.017,3.596,8.017,8.017v61.461h-52.618c-10.223-27.435-36.679-47.031-67.632-47.031
	c-25.132,0-47.291,12.924-60.214,32.465V171.023H428.092z M375.716,441.453c-30.942,0-56.117-25.175-56.117-56.117
	s25.175-56.117,56.117-56.117s56.117,25.175,56.117,56.117S406.658,441.453,375.716,441.453z M495.967,394.956
	c0,4.421-3.596,8.017-8.017,8.017h-42.273c2.2-8.723,2.724-17.8,1.597-26.722h48.692V394.956z"/>
<path d="M337.236,265.086h76.96c4.428,0,8.017-3.588,8.017-8.017V188.66c0-4.428-3.588-8.017-8.017-8.017h-76.96
	c-4.428,0-8.017,3.588-8.017,8.017v68.409C329.219,261.497,332.807,265.086,337.236,265.086z M345.253,196.676h60.927v52.376
	h-60.927V196.676z"/>
<path d="M332.96,290.739h21.378c4.428,0,8.017-3.588,8.017-8.017s-3.588-8.017-8.017-8.017H332.96c-4.428,0-8.017,3.588-8.017,8.017
	S328.532,290.739,332.96,290.739z"/>
<path d="M123.457,347.39c-20.924,0-37.946,17.022-37.946,37.946s17.022,37.946,37.946,37.946s37.946-17.022,37.946-37.946
	S144.381,347.39,123.457,347.39z M123.457,407.248c-12.083,0-21.912-9.83-21.912-21.912s9.83-21.912,21.912-21.912
	s21.912,9.83,21.912,21.912S135.54,407.248,123.457,407.248z"/>
<path d="M375.716,347.39c-20.924,0-37.946,17.022-37.946,37.946s17.022,37.946,37.946,37.946c20.924,0,37.946-17.022,37.946-37.946
	S396.64,347.39,375.716,347.39z M375.716,407.248c-12.083,0-21.912-9.83-21.912-21.912s9.83-21.912,21.912-21.912
	c12.083,0,21.912,9.83,21.912,21.912S387.799,407.248,375.716,407.248z"/>
<path d="M84.977,291.808h145.37c4.428,0,8.017-3.588,8.017-8.017V180.643H256c3.594,0,6.748-2.391,7.72-5.852
	c0.969-3.46-0.481-7.145-3.551-9.013L161.83,105.92c-2.56-1.56-5.776-1.56-8.336,0l-98.338,59.858
	c-3.07,1.868-4.52,5.552-3.551,9.013c0.971,3.461,4.125,5.852,7.718,5.852H76.96v103.148
	C76.96,288.22,80.549,291.808,84.977,291.808z M144.301,275.775v-52.376h26.722v52.376H144.301z M157.662,122.153l70.328,42.808
	c-3.277,1.006-5.66,4.058-5.66,7.665v103.148h-35.273v-60.392c0-4.428-3.588-8.017-8.017-8.017h-42.756
	c-4.428,0-8.017,3.588-8.017,8.017v60.392H92.994V172.626c0-3.608-2.383-6.658-5.66-7.665L157.662,122.153z"/>
<path d="M149.111,189.194h17.102c4.428,0,8.017-3.588,8.017-8.017s-3.588-8.017-8.017-8.017h-17.102
	c-4.428,0-8.017,3.588-8.017,8.017S144.682,189.194,149.111,189.194z"/>
<path d="M149.111,163.541h17.102c4.428,0,8.017-3.588,8.017-8.017c0-4.428-3.588-8.017-8.017-8.017h-17.102
	c-4.428,0-8.017,3.588-8.017,8.017C141.094,159.952,144.682,163.541,149.111,163.541z"/>
</svg>